HIERARCHY
ROOT Hips
{
	OFFSET 0.00000 0.00000 0.00000
	CHANNELS 6 Xposition Yposition Zposition Zrotation Yrotation Xrotation 
	JOINT LHipJoint
	{
		OFFSET 0 0 0
		CHANNELS 3 Zrotation Yrotation Xrotation
		JOINT LeftHip
		{
			OFFSET 1.55766 -1.60504 1.11378
			CHANNELS 3 Zrotation Yrotation Xrotation
			JOINT LeftKnee
			{
				OFFSET 2.29047 -6.29302 0.00000
				CHANNELS 3 Zrotation Yrotation Xrotation
				JOINT LeftAnkle
				{
					OFFSET 2.52265 -6.93093 0.00000
					CHANNELS 3 Zrotation Yrotation Xrotation
					JOINT LeftToe
					{
						OFFSET 0.17633 -0.48446 2.02656
						CHANNELS 3 Zrotation Yrotation Xrotation
						End Site
						{
							OFFSET 0.00000 -0.00000 1.04989
						}
					}
				}
			}
		}
	}
	JOINT RHipJoint
	{
		OFFSET 0 0 0
		CHANNELS 3 Zrotation Yrotation Xrotation
		JOINT RightHip
		{
			OFFSET -1.48599 -1.60504 1.11378
			CHANNELS 3 Zrotation Yrotation Xrotation
			JOINT RightKnee
			{
				OFFSET -2.27280 -6.24448 0.00000
				CHANNELS 3 Zrotation Yrotation Xrotation
				JOINT RightAnkle
				{
					OFFSET -2.50834 -6.89161 0.00000
					CHANNELS 3 Zrotation Yrotation Xrotation
					JOINT RightToe
					{
						OFFSET -0.26967 -0.74090 2.08741
						CHANNELS 3 Zrotation Yrotation Xrotation
						End Site
						{
							OFFSET -0.00000 -0.00000 1.10614
						}
					}
				}
			}
		}
	}
	JOINT lowerback
	{
		OFFSET 0 0 0
		CHANNELS 3 Zrotation Yrotation Xrotation
		JOINT Chest
		{
			OFFSET 0.06481 2.02437 -0.08472
			CHANNELS 3 Zrotation Yrotation Xrotation
			JOINT Chest2
			{
				OFFSET 0.00015 1.96711 0.18069
				CHANNELS 3 Zrotation Yrotation Xrotation
				JOINT lowerneck
				{
					OFFSET 0 0 0
					CHANNELS 3 Zrotation Yrotation Xrotation
					JOINT Neck
					{
						OFFSET -0.29961 1.68293 -0.13041
						CHANNELS 3 Zrotation Yrotation Xrotation
						JOINT Head
						{
							OFFSET 0.59697 1.61501 -0.14669
							CHANNELS 3 Zrotation Yrotation Xrotation
							End Site
							{
								OFFSET 0.22973 1.74906 -0.10148
							}
						}
					}
				}
				JOINT LeftCollar
				{
					OFFSET 0 0 0
					CHANNELS 3 Zrotation Yrotation Xrotation
					JOINT LeftShoulder
					{
						OFFSET 3.37968 1.02893 0.31147
CHANNELS 3 Zrotation Xrotation Yrotation
						JOINT LeftElbow
						{
OFFSET 0 -5.198070 -0.000000
CHANNELS 3 Zrotation Xrotation Yrotation
							JOINT LeftWrist
							{
OFFSET 0 -3.093700 -0.000000
CHANNELS 3 Zrotation Xrotation Yrotation
								JOINT lhand
								{
									OFFSET 0 0 0
CHANNELS 3 Zrotation Xrotation Yrotation
									JOINT LFingers
									{
OFFSET 0 -0.672630 -0.000000
CHANNELS 3 Zrotation Xrotation Yrotation
										End Site
										{
OFFSET 0 -0.542290 -0.000000
										}
									}
								}
								JOINT LThumb
								{
OFFSET 0 0.000000 0.000000
CHANNELS 3 Zrotation Xrotation Yrotation
									End Site
									{
OFFSET 0 -0.550570 0.550570
									}
								}
							}
						}
					}
				}
				JOINT RightCollar
				{
					OFFSET 0 0 0
					CHANNELS 3 Zrotation Yrotation Xrotation
					JOINT RightShoulder
					{
						OFFSET -3.38254 0.96355 -0.16120
CHANNELS 3 Zrotation Xrotation Yrotation
						JOINT RightElbow
						{
OFFSET 0 -5.452220 -0.000000
CHANNELS 3 Zrotation Xrotation Yrotation
							JOINT RightWrist
							{
OFFSET 0 -3.012840 -0.000000
CHANNELS 3 Zrotation Xrotation Yrotation
								JOINT rhand
								{
									OFFSET 0 0 0
CHANNELS 3 Zrotation Xrotation Yrotation
									JOINT RFingers
									{
OFFSET 0 -0.622300 -0.000000
CHANNELS 3 Zrotation Xrotation Yrotation
										End Site
										{
OFFSET 0 -0.501710 -0.000000
										}
									}
								}
								JOINT RThumb
								{
OFFSET 0 0.000000 0.000000
CHANNELS 3 Zrotation Xrotation Yrotation
									End Site
									{
OFFSET 0 -0.509370 0.509370
									}
								}
							}
						}
					}
				}
			}
		}
	}
}
MOTION
Frames: 4
Frame Time: 0.008333333333333333
6.263040 16.536717 -16.635401 -184.194609 -144.716130 -160.306125 0.000000 0.000000 0.000000 -11.113047 -12.602044 -42.214053 5.989801 14.418498 44.940806 0.725683 -5.087561 -15.180282 1.448412 -7.607779 -21.528841 0.000000 0.000000 0.000000 22.268921 9.016216 -20.095393 -2.253138 -9.374666 26.974444 -1.413636 -1.214987 -22.939588 -0.968532 6.265511 -17.556899 8.169847 3.065961 -0.476207 -1.308566 4.296781 -7.820321 -6.176586 1.523112 -7.302511 -31.370252 -6.970377 8.045168 35.579989 -13.637645 2.278497 17.999947 -7.706264 4.357849 0.000000 0.000000 0.000000 8.875413 13.892274 -18.237626 19.039741 -29.467972 5.050412 28.159624 -50.439374 8.390287 0.000000 0.000000 0.000000 -7.125000 0.000000 0.000000 0.923605 20.482987 0.542008 0.000000 0.000000 0.000000 -13.515084 8.330221 21.779982 -12.390367 -20.387397 -2.236393 -14.768068 22.968265 11.097639 0.000000 0.000000 0.000000 7.125000 0.000000 0.000000 -12.529622 -48.792060 178.811011
6.244247 16.528962 -16.627678 -184.403302 -147.012751 -160.246436 0.000000 0.000000 0.000000 -10.649544 -12.540345 -42.792138 5.929600 14.359788 44.698518 0.754921 -3.501004 -15.605136 1.423732 -7.545380 -21.341634 0.000000 0.000000 0.000000 23.067361 7.852385 -19.946440 -2.186435 -9.244052 26.561722 -1.396141 -1.923372 -23.091293 -0.923817 6.123414 -17.142952 8.224588 2.918816 -0.292663 -1.069712 4.139497 -7.879600 -5.962038 1.438537 -7.514960 -31.192584 -7.314644 8.251277 35.739992 -14.182959 2.155171 17.963529 -7.997503 4.503885 0.000000 0.000000 0.000000 8.460605 14.531990 -17.941170 18.357681 -28.612679 4.719301 28.156783 -49.722117 8.343707 0.000000 0.000000 0.000000 -7.125000 0.000000 0.000000 0.924370 20.535754 0.541489 0.000000 0.000000 0.000000 -13.517541 7.902410 20.532770 -12.325685 -20.291371 -2.213934 -14.770027 23.619838 11.060594 0.000000 0.000000 0.000000 7.125000 0.000000 0.000000 -12.534574 -48.828701 178.799068
6.222283 16.520803 -16.610055 -184.619195 -149.248078 -160.220250 0.000000 0.000000 0.000000 -10.121869 -12.592878 -43.264881 5.847489 14.278974 44.366702 0.765800 -2.092993 -15.956373 1.441074 -7.589181 -21.473043 0.000000 0.000000 0.000000 23.863263 6.683894 -19.704818 -2.107027 -9.085466 26.062988 -1.375958 -2.600019 -23.230067 -0.887623 6.005585 -16.800717 8.249440 2.775236 -0.144448 -0.846807 3.981343 -7.914414 -5.743102 1.358719 -7.679742 -30.967615 -7.664155 8.452246 35.930393 -14.718176 1.970312 17.927808 -8.283649 4.629710 0.000000 0.000000 0.000000 8.006295 15.234945 -17.614350 17.769834 -27.861458 4.441153 28.170965 -49.098253 8.364679 0.000000 0.000000 0.000000 -7.125000 0.000000 0.000000 0.933308 20.510891 0.547192 0.000000 0.000000 0.000000 -13.407625 7.418950 19.212292 -12.289935 -20.238051 -2.201580 -14.752768 24.282027 10.818270 0.000000 0.000000 0.000000 7.125000 0.000000 0.000000 -12.602578 -49.073975 178.715287
6.198521 16.511768 -16.582826 -184.833144 -151.404558 -160.210175 0.000000 0.000000 0.000000 -9.578206 -12.703849 -43.680439 5.754455 14.186058 43.988049 0.769737 -0.985929 -16.272576 1.475795 -7.676238 -21.734907 0.000000 0.000000 0.000000 24.634095 5.534917 -19.417819 -2.023176 -8.914140 25.527194 -1.355165 -3.226925 -23.361935 -0.862289 5.921497 -16.556862 8.235296 2.628449 -0.029590 -0.634334 3.813427 -7.946629 -5.509793 1.277699 -7.823639 -30.724726 -7.984871 8.707846 36.171637 -15.207093 1.697073 17.921093 -8.553909 4.707461 0.000000 0.000000 0.000000 7.515080 16.033896 -17.280288 17.265177 -27.206054 4.207895 28.209110 -48.547978 8.391784 0.000000 0.000000 0.000000 -7.125000 0.000000 0.000000 0.958915 20.476904 0.562941 0.000000 0.000000 0.000000 -13.211400 6.947172 17.987177 -12.330850 -20.298986 -2.215704 -14.718177 24.776654 10.567428 0.000000 0.000000 0.000000 7.125000 0.000000 0.000000 -12.691380 -49.328998 178.625239
